<?xml version="1.0" encoding="utf-8"?>
<!-- Generator: Adobe Illustrator 21.1.0, SVG Export Plug-In . SVG Version: 6.00 Build 0)  -->
<svg version="1.1" id="Layer_1" xmlns="http://www.w3.org/2000/svg" xmlns:xlink="http://www.w3.org/1999/xlink" x="0px" y="0px"
	 viewBox="0 0 272 243" style="enable-background:new 0 0 272 243;" xml:space="preserve">
<style type="text/css">
	.st0{fill:#FF0000;}
</style>
<g>
	<g>
		<path class="st0" d="M200,5c36.1,0,65.1,29.5,66,67.1l0,0.1l0,0.1c1.2,23.7-16.4,56.3-50.8,94.3c-27.2,30-59.4,57-79.2,70.5
			c-19.7-13.2-51.9-40-79.6-70.5C40.4,149,28,132.4,19.3,117.2C9.4,99.9,4.6,84.8,5,72.2c0.9-18.3,8.1-35.3,20.3-47.7
			C37.7,11.9,54.2,5,72,5c26,0,38.1,13.1,48.8,24.6c4.2,4.5,8.1,8.8,12.5,11.6l2.8,1.8l2.7-1.9c3.9-2.7,7.4-6.6,11.2-10.8
			C160.1,19,172.6,5,200,5 M200,0c-40,0-51,28-64,37c-14-9-25-37-64-37C32,0,2,32,0,72c-2,58,97,146,136,171c38-25,138-113,135-171
			C270,32,239,0,200,0L200,0z"/>
	</g>
</g>
</svg>
